<svg width="69" height="65" viewBox="0 0 69 65" fill="none" xmlns="http://www.w3.org/2000/svg">
<path d="M31.14 34.5313L34.2041 32.297L37.197 34.5313C37.7195 34.9376 38.2896 34.9493 38.9072 34.5665C39.5248 34.1838 39.7148 33.6755 39.4773 33.0417L38.2659 29.3855L41.6863 26.8126C42.2088 26.4063 42.3637 25.8981 42.1509 25.2878C41.938 24.6775 41.4981 24.3733 40.8312 24.3751H36.7694L35.558 20.7865C35.3205 20.1546 34.8692 19.8386 34.2041 19.8386C33.539 19.8386 33.0877 20.1546 32.8502 20.7865L31.6388 24.3751H27.5771C26.912 24.3751 26.4607 24.6911 26.2232 25.323C25.9856 25.9549 26.1281 26.4515 26.6507 26.8126L30.0711 29.3855L28.8597 33.0417C28.6222 33.6737 28.8008 34.182 29.3956 34.5665C29.9904 34.9511 30.5718 34.9394 31.14 34.5313ZM20.8788 61.073C19.9286 61.389 19.0612 61.2761 18.2764 60.7345C17.4916 60.1928 17.1002 59.4706 17.1021 58.5678V41.3699C15.2968 39.474 13.8954 37.3074 12.8978 34.8699C11.9002 32.4324 11.4014 29.8369 11.4014 27.0834C11.4014 21.0348 13.6104 15.9115 18.0284 11.7136C22.4464 7.51571 27.8383 5.41675 34.2041 5.41675C40.5699 5.41675 45.9618 7.51571 50.3798 11.7136C54.7978 15.9115 57.0069 21.0348 57.0069 27.0834C57.0069 29.8369 56.5081 32.4324 55.5104 34.8699C54.5128 37.3074 53.1114 39.474 51.3062 41.3699V58.5678C51.3062 59.4706 50.9138 60.1928 50.129 60.7345C49.3442 61.2761 48.4777 61.389 47.5295 61.073L34.2041 56.8751L20.8788 61.073ZM34.2041 43.3334C38.9547 43.3334 42.9927 41.7536 46.3181 38.5938C49.6435 35.4341 51.3062 31.5973 51.3062 27.0834C51.3062 22.5695 49.6435 18.7327 46.3181 15.573C42.9927 12.4133 38.9547 10.8334 34.2041 10.8334C29.4535 10.8334 25.4156 12.4133 22.0902 15.573C18.7648 18.7327 17.1021 22.5695 17.1021 27.0834C17.1021 31.5973 18.7648 35.4341 22.0902 38.5938C25.4156 41.7536 29.4535 43.3334 34.2041 43.3334ZM22.8027 54.2345L34.2041 51.4584L45.6055 54.2345V45.8386C43.9428 46.7414 42.149 47.4528 40.224 47.9728C38.2991 48.4928 36.2925 48.7519 34.2041 48.7501C32.1139 48.7501 30.1063 48.4901 28.1813 47.9701C26.2564 47.4501 24.4635 46.7396 22.8027 45.8386V54.2345Z" fill="#581345"/>
</svg>
