<svg width="640" height="846" viewBox="0 0 640 846" fill="none" xmlns="http://www.w3.org/2000/svg">
<mask id="mask0_152_334" style="mask-type:luminance" maskUnits="userSpaceOnUse" x="0" y="0" width="640" height="846">
<path d="M640 0H0V846H640V0Z" fill="white"/>
</mask>
<g mask="url(#mask0_152_334)">
<path d="M640 0H0V846H640V0Z" fill="#581345"/>
<path d="M4.60978e-05 413.975C75.3652 409.184 94.1658 295.095 157.573 252.82C220.693 210.736 320.62 234.73 363.894 171.358C406.796 108.528 396.665 16.2012 367.402 -54.4683C340.308 -119.901 261.009 -139.133 213.829 -191.051C169.303 -240.047 156.321 -316.562 99.4702 -349.307C37.6585 -384.912 -42.1344 -405.054 -107.034 -375.87C-171.378 -346.936 -178.681 -255.345 -226.764 -202.609C-277.913 -146.51 -373.123 -131.969 -396.185 -58.736C-419.276 14.5925 -384.028 97.4853 -341.156 160.651C-301.602 218.929 -226.552 232.107 -170.571 273.676C-110.331 318.407 -74.093 418.684 4.60978e-05 413.975Z" fill="#460F37"/>
<path d="M640 1268.12C715.298 1276.75 757.935 1177.19 812.926 1123.45C857.475 1079.92 897.952 1036.26 931.503 983.269C970.6 921.515 1035.56 861.86 1024.69 788.968C1013.82 716.02 929.836 684.442 879.192 632.287C832.879 584.591 798.979 524.386 739.792 495.562C674.762 463.893 600.804 445.505 530.832 462.638C459.304 480.152 393.856 526.681 353.609 590.118C315.43 650.294 327.31 726.996 317.907 798.249C308.589 868.857 262.377 946.083 298.629 1006.75C335.484 1068.43 433.715 1043.28 490.126 1086.47C553.305 1134.84 561.789 1259.16 640 1268.12Z" fill="#6A1753"/>
</g>
</svg>
