<svg width="640" height="861" viewBox="0 0 640 861" fill="none" xmlns="http://www.w3.org/2000/svg">
<mask id="mask0_601_1097" style="mask-type:luminance" maskUnits="userSpaceOnUse" x="0" y="0" width="640" height="861">
<path d="M640 0H0V860.912H640V0Z" fill="white"/>
</mask>
<g mask="url(#mask0_601_1097)">
<path d="M640 0H3.05176e-05V860.912H640V0Z" fill="#581345"/>
<path d="M4.60978e-05 421.271C75.3652 416.397 94.1658 300.297 157.573 257.276C220.693 214.451 320.62 238.867 363.894 174.378C406.796 110.441 396.665 16.4866 367.402 -55.4286C340.308 -122.015 261.009 -141.586 213.829 -194.418C169.303 -244.279 156.321 -322.142 99.4702 -355.465C37.6585 -391.696 -42.1344 -412.194 -107.034 -382.495C-171.378 -353.052 -178.681 -259.845 -226.764 -206.18C-277.913 -149.093 -373.123 -134.295 -396.185 -59.7714C-419.276 14.8496 -384.028 99.2034 -341.156 163.482C-301.602 222.788 -226.552 236.198 -170.571 278.5C-110.331 324.019 -74.093 426.063 4.60978e-05 421.271Z" fill="#460F37"/>
<path d="M640 1290.47C715.298 1299.25 757.935 1197.94 812.926 1143.26C857.475 1098.96 897.952 1054.53 931.503 1000.6C970.6 937.757 1035.56 877.052 1024.69 802.875C1013.82 728.641 929.836 696.507 879.192 643.432C832.879 594.895 798.979 533.629 739.792 504.297C674.762 472.069 600.804 453.358 530.832 470.792C459.304 488.615 393.856 535.964 353.609 600.519C315.43 661.757 327.31 739.81 317.907 812.319C308.589 884.172 262.377 962.759 298.629 1024.5C335.484 1087.27 433.715 1061.67 490.126 1105.62C553.305 1154.84 561.789 1281.35 640 1290.47Z" fill="#6A1753"/>
</g>
</svg>
