<svg width="20" height="20" viewBox="0 0 20 20" fill="none" xmlns="http://www.w3.org/2000/svg">
<path d="M10 13.3333H10.8333C11.3889 13.3333 12.5 13 12.5 11.6667C12.5 10.3333 11.3889 10 10.8333 10H9.16667C8.61111 10 7.5 9.66667 7.5 8.33333C7.5 7 8.61111 6.66667 9.16667 6.66667H10M10 13.3333H7.5M10 13.3333V15M12.5 6.66667H10M10 6.66667V5M17.5 10C17.5 14.1421 14.1421 17.5 10 17.5C5.85786 17.5 2.5 14.1421 2.5 10C2.5 5.85786 5.85786 2.5 10 2.5C14.1421 2.5 17.5 5.85786 17.5 10Z" stroke="black" stroke-width="1.5" stroke-linecap="round" stroke-linejoin="round"/>
</svg>
