<svg width="111" height="58" viewBox="0 0 111 58" fill="none" xmlns="http://www.w3.org/2000/svg">
<path d="M-5.80645e-06 58C-5.14058e-06 50.3833 1.43554 42.8412 4.22468 35.8044C7.01382 28.7675 11.1019 22.3736 16.2556 16.9878C21.4092 11.602 27.5275 7.32976 34.2611 4.41499C40.9946 1.50022 48.2116 6.24787e-06 55.5 7.21798e-06C62.7884 8.18808e-06 70.0054 1.50022 76.7389 4.41499C83.4725 7.32977 89.5908 11.602 94.7444 16.9878C99.8981 22.3736 103.986 28.7675 106.775 35.8044C109.564 42.8412 111 50.3833 111 58L88.8703 58C88.8703 53.4203 88.0071 48.8855 86.3301 44.6545C84.6531 40.4235 82.1951 36.579 79.0964 33.3407C75.9976 30.1024 72.3189 27.5337 68.2703 25.7811C64.2216 24.0286 59.8823 23.1265 55.5 23.1265C51.1178 23.1265 46.7784 24.0286 42.7297 25.7811C38.6811 27.5337 35.0024 30.1024 31.9036 33.3407C28.8049 36.579 26.3469 40.4235 24.6699 44.6545C22.9928 48.8855 22.1297 53.4203 22.1297 58L-5.80645e-06 58Z" fill="#6A1753" fill-opacity="0.2"/>
</svg>
