<svg width="27" height="27" viewBox="0 0 27 27" fill="none" xmlns="http://www.w3.org/2000/svg">
<path d="M3.375 5.90625V19.4062C3.375 19.8538 3.55279 20.283 3.86926 20.5995C4.18572 20.916 4.61495 21.0938 5.0625 21.0938H21.9375C22.3851 21.0938 22.8143 20.916 23.1307 20.5995C23.4472 20.283 23.625 19.8538 23.625 19.4062V5.90625H3.375ZM3.375 4.21875H23.625C24.0726 4.21875 24.5018 4.39654 24.8182 4.71301C25.1347 5.02947 25.3125 5.4587 25.3125 5.90625V19.4062C25.3125 20.3014 24.9569 21.1598 24.324 21.7927C23.691 22.4257 22.8326 22.7812 21.9375 22.7812H5.0625C4.16739 22.7812 3.30895 22.4257 2.67601 21.7927C2.04308 21.1598 1.6875 20.3014 1.6875 19.4062V5.90625C1.6875 5.4587 1.86529 5.02947 2.18176 4.71301C2.49822 4.39654 2.92745 4.21875 3.375 4.21875Z" fill="white"/>
<path d="M23.8359 5.90625L17.3104 13.365C16.8352 13.9082 16.2494 14.3435 15.5922 14.6418C14.935 14.94 14.2217 15.0943 13.5 15.0943C12.7783 15.0943 12.065 14.94 11.4078 14.6418C10.7506 14.3435 10.1648 13.9082 9.68963 13.365L3.16406 5.90625H23.8359ZM5.40675 5.90625L10.9586 12.2529C11.2754 12.6152 11.666 12.9055 12.1041 13.1044C12.5423 13.3033 13.018 13.4062 13.4992 13.4062C13.9804 13.4062 14.456 13.3033 14.8942 13.1044C15.3323 12.9055 15.7229 12.6152 16.0397 12.2529L21.5932 5.90625H5.40675Z" fill="white"/>
</svg>
