<svg width="596" height="115" viewBox="0 0 596 115" fill="none" xmlns="http://www.w3.org/2000/svg">
<path d="M3.02698 12.768L56.5768 7.648L110.127 47.584L163.676 57.056L217.226 3.552L270.776 17.888L324.326 28.384L377.876 105.184L431.425 53.728L484.975 78.304L538.525 35.296L592.075 44.256V114.4H538.525H484.975H431.425H377.876H324.326H270.776H217.226H163.676H110.127H56.5768H3.02698V12.768Z" fill="#6B2146" fill-opacity="0.6"/>
<path d="M3.02699 15.6482C4.65904 15.6482 5.98208 14.3588 5.98208 12.7682C5.98208 11.1776 4.65904 9.88818 3.02699 9.88818C1.39494 9.88818 0.0718994 11.1776 0.0718994 12.7682C0.0718994 14.3588 1.39494 15.6482 3.02699 15.6482Z" fill="#6B2146" fill-opacity="0.6"/>
<path d="M56.5768 10.5281C58.2088 10.5281 59.5319 9.23865 59.5319 7.64807C59.5319 6.05749 58.2088 4.76807 56.5768 4.76807C54.9447 4.76807 53.6217 6.05749 53.6217 7.64807C53.6217 9.23865 54.9447 10.5281 56.5768 10.5281Z" fill="#6B2146" fill-opacity="0.6"/>
<path d="M110.127 50.4641C111.759 50.4641 113.082 49.1747 113.082 47.5841C113.082 45.9935 111.759 44.7041 110.127 44.7041C108.495 44.7041 107.172 45.9935 107.172 47.5841C107.172 49.1747 108.495 50.4641 110.127 50.4641Z" fill="#6B2146" fill-opacity="0.6"/>
<path d="M163.676 59.936C165.308 59.936 166.631 58.6466 166.631 57.056C166.631 55.4654 165.308 54.176 163.676 54.176C162.044 54.176 160.721 55.4654 160.721 57.056C160.721 58.6466 162.044 59.936 163.676 59.936Z" fill="#6B2146" fill-opacity="0.6"/>
<path d="M217.226 6.43212C218.858 6.43212 220.181 5.1427 220.181 3.55212C220.181 1.96154 218.858 0.672119 217.226 0.672119C215.594 0.672119 214.271 1.96154 214.271 3.55212C214.271 5.1427 215.594 6.43212 217.226 6.43212Z" fill="#6B2146" fill-opacity="0.6"/>
<path d="M270.776 20.7681C272.408 20.7681 273.731 19.4786 273.731 17.8881C273.731 16.2975 272.408 15.0081 270.776 15.0081C269.144 15.0081 267.821 16.2975 267.821 17.8881C267.821 19.4786 269.144 20.7681 270.776 20.7681Z" fill="#6B2146" fill-opacity="0.6"/>
<path d="M324.326 31.2642C325.958 31.2642 327.281 29.9747 327.281 28.3842C327.281 26.7936 325.958 25.5042 324.326 25.5042C322.694 25.5042 321.371 26.7936 321.371 28.3842C321.371 29.9747 322.694 31.2642 324.326 31.2642Z" fill="#6B2146" fill-opacity="0.6"/>
<path d="M377.876 108.064C379.508 108.064 380.831 106.775 380.831 105.184C380.831 103.593 379.508 102.304 377.876 102.304C376.244 102.304 374.921 103.593 374.921 105.184C374.921 106.775 376.244 108.064 377.876 108.064Z" fill="#6B2146" fill-opacity="0.6"/>
<path d="M431.425 56.6081C433.057 56.6081 434.381 55.3187 434.381 53.7281C434.381 52.1376 433.057 50.8481 431.425 50.8481C429.793 50.8481 428.47 52.1376 428.47 53.7281C428.47 55.3187 429.793 56.6081 431.425 56.6081Z" fill="#6B2146" fill-opacity="0.6"/>
<path d="M484.975 81.1841C486.607 81.1841 487.93 79.8947 487.93 78.3041C487.93 76.7135 486.607 75.4241 484.975 75.4241C483.343 75.4241 482.02 76.7135 482.02 78.3041C482.02 79.8947 483.343 81.1841 484.975 81.1841Z" fill="#6B2146" fill-opacity="0.6"/>
<path d="M538.525 38.176C540.157 38.176 541.48 36.8866 541.48 35.296C541.48 33.7054 540.157 32.416 538.525 32.416C536.893 32.416 535.57 33.7054 535.57 35.296C535.57 36.8866 536.893 38.176 538.525 38.176Z" fill="#6B2146" fill-opacity="0.6"/>
<path d="M592.075 47.1362C593.707 47.1362 595.03 45.8468 595.03 44.2562C595.03 42.6656 593.707 41.3762 592.075 41.3762C590.443 41.3762 589.12 42.6656 589.12 44.2562C589.12 45.8468 590.443 47.1362 592.075 47.1362Z" fill="#6B2146" fill-opacity="0.6"/>
</svg>
