<svg width="40" height="40" viewBox="0 0 40 40" fill="none" xmlns="http://www.w3.org/2000/svg">
<mask id="mask0_701_896" style="mask-type:alpha" maskUnits="userSpaceOnUse" x="0" y="0" width="40" height="40">
<circle cx="20" cy="20" r="20" transform="matrix(-1 0 0 1 40 0)" fill="#78AEB1"/>
</mask>
<g mask="url(#mask0_701_896)">
<circle cx="20" cy="20" r="20" transform="matrix(-1 0 0 1 40 0)" fill="#E8F2A8"/>
<path fill-rule="evenodd" clip-rule="evenodd" d="M27.2941 14.5882C27.2941 14.9872 27.2727 15.3799 27.2313 15.7647C27.2313 15.7647 27.4902 15.3206 27.7647 15.1764C27.7917 15.1623 27.8166 15.1477 27.8405 15.1337L27.8405 15.1337L27.8406 15.1337C27.9303 15.0811 28.0049 15.0374 28.1177 15.0588C28.304 15.0942 28.2795 15.2785 28.2528 15.4803C28.2401 15.5758 28.2269 15.6753 28.2353 15.7647C28.2353 15.7647 28.2324 16.7772 28.1177 17.4117C28.0244 17.9272 27.9575 18.2188 27.7647 18.7059C27.6135 19.0879 27.2941 19.647 27.2941 19.647L27.2181 19.6457C26.9881 21.5837 26.2488 23.3132 25.1764 24.6133V27.5294L25.8823 28.7059L24.3529 34H15.7647L14.6373 27.5294V23.2941C14.0154 22.1646 13.6008 20.8417 13.4626 19.4119L13.4519 19.4117C13.4519 19.4117 13.1978 19.4768 13.0588 19.4117C12.9218 19.3476 12.9065 19.2243 12.8895 19.0879C12.8788 19.0012 12.8673 18.9091 12.8235 18.8235C12.7368 18.6539 12.6355 18.5398 12.5353 18.427C12.4276 18.3057 12.3211 18.1858 12.2353 18C12.0488 17.5958 12.035 17.2936 12.0173 16.9056C12.0128 16.8064 12.008 16.7017 12 16.5882C11.9958 16.5283 11.9915 16.4721 11.9874 16.4185C11.9631 16.1031 11.9458 15.8787 12 15.5294C12.0149 15.4334 12.0144 15.3331 12.0139 15.2364C12.0128 15.0003 12.0117 14.7854 12.2353 14.7059C12.3515 14.6645 12.4335 14.6789 12.5469 14.6987L12.5882 14.7059C13.0478 14.7831 13.4519 15.5294 13.4519 15.5294C13.4254 15.2202 13.4118 14.9062 13.4118 14.5882C13.4118 9.78008 16.5194 5.88232 20.353 5.88232C24.1865 5.88232 27.2941 9.78008 27.2941 14.5882Z" fill="#EACBAF"/>
<path d="M23.6471 7.76476C22.4932 7.30936 21.676 8.05795 20.4706 7.76476C19.7494 7.58932 19.4474 7.09356 18.7059 7.05887C17.6385 7.00894 17.0597 7.55532 16.2353 8.23534C15.6318 8.73322 15.2101 9.03001 14.9412 9.76476C14.6728 10.4982 15.2096 11.0313 14.9412 11.7648C14.6723 12.4995 13.8898 12.5504 13.6471 13.2942C13.4476 13.9057 13.6471 14.9412 13.6471 14.9412V17.0589C13.6471 17.0589 12.9072 15.5884 12.5883 14.5883C12.2461 13.5152 12.0946 12.8871 12 11.7648C11.9345 10.9865 11.7982 10.5193 12 9.76476C12.2405 8.86606 12.5523 8.32607 13.2942 7.76476C13.9893 7.23878 14.5433 7.13393 15.4118 7.05887H16.2353L15.8824 6.70593C15.8824 6.70593 15.7358 5.89546 15.8824 5.41181C16.137 4.5718 17.5295 3.8824 17.5295 3.8824C17.5295 3.8824 19.2895 3.16538 20.4706 3.17652C21.6072 3.18724 23.2942 3.8824 23.2942 3.8824C23.2942 3.8824 25.2867 5.09198 26.353 6.1177C27.2942 7.0231 27.9763 7.49713 28.4706 8.70593C28.9169 9.79726 28.882 10.5345 28.8269 11.6951L28.8236 11.7648C28.7636 13.0341 28.2353 15.1765 28.2353 15.1765C28.2353 15.1765 28 14.8236 27.6471 15.2942C27.2942 15.7648 27.0589 17.4118 27.0589 17.4118V15.7648C27.0589 15.7648 27.2488 14.5224 27.0589 13.7648C26.8385 12.8858 26.1028 12.6437 25.8824 11.7648C25.6924 11.0072 26.1365 10.5033 25.8824 9.76476C25.5014 8.65711 24.7367 8.19477 23.6471 7.76476Z" fill="black"/>
<path d="M18 31.4117C18.5076 31.7298 18.8584 31.8241 19.2941 32.2352C19.8503 32.76 20.3529 33.8823 20.3529 33.8823C20.3529 33.8823 20.8968 33.1398 21.2941 32.7058C22.2438 31.6686 23.2909 31.6082 24.1176 30.4705C24.6855 29.6892 24.9412 28.2352 24.9412 28.2352L25.1765 25.7646H25.2941L25.8823 27.1764L36.5882 32.7058C36.5882 32.7058 37.6959 32.9659 38.2353 33.4117C38.5618 33.6816 38.9412 34.2352 38.9412 34.2352L41.7647 40.2352H-1.52942C-1.52942 40.2352 -1.11746 38.8669 -0.823537 37.9999C-0.286579 36.4161 -0.37125 35.2793 0.705875 33.9999C1.44565 33.1213 2.0958 32.8612 3.05882 32.2352C4.93687 31.0144 8.23529 29.7646 8.23529 29.7646L13.5294 27.0588L14.5882 25.7646C14.5882 25.7646 14.5783 26.5903 14.5882 27.0588C14.6028 27.7416 14.6466 27.972 14.9412 28.5882C15.2437 29.2209 15.4051 29.6037 15.8823 30.1176C16.5419 30.8277 17.1787 30.8971 18 31.4117Z" fill="#12373F"/>
</g>
</svg>
