<svg width="40" height="40" viewBox="0 0 40 40" fill="none" xmlns="http://www.w3.org/2000/svg">
<mask id="mask0_701_634" style="mask-type:alpha" maskUnits="userSpaceOnUse" x="0" y="0" width="40" height="40">
<circle cx="20" cy="20" r="20" transform="matrix(-1 0 0 1 40 0)" fill="#78AEB1"/>
</mask>
<g mask="url(#mask0_701_634)">
<circle cx="20" cy="20" r="20" transform="matrix(-1 0 0 1 40 0)" fill="#E8F2A8"/>
<path fill-rule="evenodd" clip-rule="evenodd" d="M27.2941 14.5882C27.2941 14.9872 27.2727 15.38 27.2313 15.7647C27.2313 15.7647 27.4902 15.3206 27.7647 15.1765C27.7917 15.1623 27.8166 15.1477 27.8405 15.1337L27.8405 15.1337L27.8406 15.1337C27.9303 15.0811 28.0049 15.0374 28.1177 15.0588C28.304 15.0942 28.2795 15.2786 28.2528 15.4803C28.2401 15.5759 28.2269 15.6753 28.2353 15.7647C28.2353 15.7647 28.2324 16.7772 28.1177 17.4118C28.0244 17.9272 27.9575 18.2188 27.7647 18.7059C27.6135 19.088 27.2941 19.6471 27.2941 19.6471L27.2181 19.6458C26.9881 21.5838 26.2488 23.3133 25.1764 24.6133V27.5294L25.8823 28.7059L24.3529 34H15.7647L14.6373 27.5294V23.2941C14.0154 22.1646 13.6008 20.8417 13.4626 19.4119L13.4519 19.4118C13.4519 19.4118 13.1978 19.4768 13.0588 19.4118C12.9218 19.3476 12.9065 19.2244 12.8895 19.0879C12.8788 19.0012 12.8673 18.9091 12.8235 18.8235C12.7368 18.6539 12.6355 18.5398 12.5353 18.427C12.4276 18.3057 12.3211 18.1859 12.2353 18C12.0488 17.5958 12.035 17.2936 12.0173 16.9056C12.0128 16.8065 12.008 16.7017 12 16.5882C11.9958 16.5284 11.9915 16.4721 11.9874 16.4186C11.9631 16.1031 11.9458 15.8787 12 15.5294C12.0149 15.4334 12.0144 15.3331 12.0139 15.2365C12.0128 15.0003 12.0117 14.7855 12.2353 14.7059C12.3515 14.6645 12.4335 14.6789 12.5469 14.6987L12.5882 14.7059C13.0478 14.7831 13.4519 15.5294 13.4519 15.5294C13.4254 15.2202 13.4118 14.9062 13.4118 14.5882C13.4118 9.78011 16.5194 5.88235 20.353 5.88235C24.1865 5.88235 27.2941 9.78011 27.2941 14.5882Z" fill="#EACBAF"/>
<path d="M23.6471 7.76469C22.4932 7.3093 21.676 8.05789 20.4706 7.76469C19.7494 7.58926 19.4474 7.0935 18.7059 7.05881C17.6385 7.00888 17.0597 7.55526 16.2353 8.23528C15.6318 8.73316 15.2101 9.02995 14.9412 9.76469C14.6728 10.4982 15.2096 11.0312 14.9412 11.7647C14.6723 12.4994 13.8898 12.5503 13.6471 13.2941C13.4476 13.9056 13.6471 14.9412 13.6471 14.9412V17.0588C13.6471 17.0588 12.9072 15.5883 12.5883 14.5882C12.2461 13.5151 12.0946 12.8871 12 11.7647C11.9345 10.9864 11.7982 10.5192 12 9.76469C12.2405 8.866 12.5523 8.32601 13.2942 7.76469C13.9893 7.23872 14.5433 7.13387 15.4118 7.05881H16.2353L15.8824 6.70587C15.8824 6.70587 15.7358 5.8954 15.8824 5.41175C16.137 4.57174 17.5295 3.88234 17.5295 3.88234C17.5295 3.88234 19.2895 3.16532 20.4706 3.17646C21.6072 3.18718 23.2942 3.88234 23.2942 3.88234C23.2942 3.88234 25.2867 5.09192 26.353 6.11764C27.2942 7.02304 27.9763 7.49707 28.4706 8.70587C28.9169 9.7972 28.882 10.5344 28.8269 11.6951L28.8236 11.7647C28.7636 13.034 28.2353 15.1765 28.2353 15.1765C28.2353 15.1765 28 14.8235 27.6471 15.2941C27.2942 15.7647 27.0589 17.4118 27.0589 17.4118V15.7647C27.0589 15.7647 27.2488 14.5223 27.0589 13.7647C26.8385 12.8857 26.1028 12.6436 25.8824 11.7647C25.6924 11.0071 26.1365 10.5033 25.8824 9.76469C25.5014 8.65705 24.7367 8.19471 23.6471 7.76469Z" fill="black"/>
<path d="M18 31.4118C18.5076 31.7299 18.8584 31.8242 19.2941 32.2353C19.8503 32.7601 20.3529 33.8824 20.3529 33.8824C20.3529 33.8824 20.8968 33.1398 21.2941 32.7059C22.2438 31.6686 23.2909 31.6083 24.1176 30.4706C24.6855 29.6892 24.9412 28.2353 24.9412 28.2353L25.1765 25.7647H25.2941L25.8823 27.1765L36.5882 32.7059C36.5882 32.7059 37.6959 32.966 38.2353 33.4118C38.5618 33.6816 38.9412 34.2353 38.9412 34.2353L41.7647 40.2353H-1.52942C-1.52942 40.2353 -1.11746 38.867 -0.823537 38C-0.286579 36.4162 -0.37125 35.2793 0.705875 34C1.44565 33.1214 2.0958 32.8613 3.05882 32.2353C4.93687 31.0145 8.23529 29.7647 8.23529 29.7647L13.5294 27.0588L14.5882 25.7647C14.5882 25.7647 14.5783 26.5904 14.5882 27.0588C14.6028 27.7417 14.6466 27.972 14.9412 28.5882C15.2437 29.221 15.4051 29.6038 15.8823 30.1177C16.5419 30.8278 17.1787 30.8971 18 31.4118Z" fill="#12373F"/>
</g>
</svg>
