<svg width="28" height="25" viewBox="0 0 28 25" fill="none" xmlns="http://www.w3.org/2000/svg">
<path fill-rule="evenodd" clip-rule="evenodd" d="M17.5917 14.883H18.4805L24.0942 20.058L22.418 21.6001L16.793 16.4355V15.6178L16.4892 15.328C15.2067 16.3423 13.5417 16.953 11.7305 16.953C7.69172 16.953 4.41797 13.9411 4.41797 10.2255C4.41797 6.50981 7.69172 3.49796 11.7305 3.49796C15.7692 3.49796 19.043 6.50981 19.043 10.2255C19.043 11.8918 18.3792 13.4236 17.2767 14.6035L17.5917 14.883ZM6.66797 10.2255C6.66797 12.8026 8.92922 14.883 11.7305 14.883C14.5317 14.883 16.793 12.8026 16.793 10.2255C16.793 7.6483 14.5317 5.56796 11.7305 5.56796C8.92922 5.56796 6.66797 7.6483 6.66797 10.2255Z" fill="black" fill-opacity="0.45"/>
</svg>
