<svg width="11" height="7" viewBox="0 0 11 7" fill="none" xmlns="http://www.w3.org/2000/svg">
<path d="M5.11042 6.00417C4.98819 6.00417 4.86964 5.98125 4.75475 5.93542C4.63986 5.88958 4.54453 5.82847 4.46875 5.75208L0.252083 1.53542C0.0840274 1.36736 0 1.15347 0 0.893749C0 0.634027 0.0840274 0.420139 0.252083 0.252083C0.420139 0.0840274 0.634028 0 0.89375 0C1.15347 0 1.36736 0.0840274 1.53542 0.252083L5.11042 3.82708L8.68542 0.252083C8.85347 0.0840274 9.06736 0 9.32708 0C9.58681 0 9.80069 0.0840274 9.96875 0.252083C10.1368 0.420139 10.2208 0.634027 10.2208 0.893749C10.2208 1.15347 10.1368 1.36736 9.96875 1.53542L5.75208 5.75208C5.66042 5.84375 5.56111 5.90883 5.45417 5.94733C5.34722 5.98583 5.23264 6.00478 5.11042 6.00417Z" fill="#581345" fill-opacity="0.5"/>
</svg>
