<svg width="12" height="13" viewBox="0 0 12 13" fill="none" xmlns="http://www.w3.org/2000/svg">
<path d="M11.1666 7.33329H6.99998V11.5C6.99998 11.9583 6.62498 12.3333 6.16665 12.3333C5.70831 12.3333 5.33331 11.9583 5.33331 11.5V7.33329H1.16665C0.708313 7.33329 0.333313 6.95829 0.333313 6.49996C0.333313 6.04163 0.708313 5.66663 1.16665 5.66663H5.33331V1.49996C5.33331 1.04163 5.70831 0.666626 6.16665 0.666626C6.62498 0.666626 6.99998 1.04163 6.99998 1.49996V5.66663H11.1666C11.625 5.66663 12 6.04163 12 6.49996C12 6.95829 11.625 7.33329 11.1666 7.33329Z" fill="#E8F2A8"/>
</svg>
